<svg width="15.008789" height="14.998047" viewBox="0 0 15.0088 14.998" fill="none" xmlns="http://www.w3.org/2000/svg" xmlns:xlink="http://www.w3.org/1999/xlink">
	<desc>
			Created with Pixso.
	</desc>
	<defs/>
	<path id="Vector" d="M14.79 13.73L12.01 10.97C13.09 9.62 13.61 7.91 13.47 6.19C13.33 4.47 12.54 2.87 11.25 1.72C9.96 0.57 8.29 -0.05 6.56 0C4.83 0.04 3.19 0.75 1.97 1.97C0.75 3.19 0.04 4.83 0 6.56C-0.05 8.29 0.57 9.96 1.72 11.25C2.87 12.54 4.47 13.33 6.19 13.47C7.91 13.61 9.62 13.09 10.97 12.01L13.73 14.77C13.8 14.84 13.88 14.9 13.97 14.93C14.06 14.97 14.16 14.99 14.26 14.99C14.36 14.99 14.46 14.97 14.55 14.93C14.64 14.9 14.72 14.84 14.79 14.77C14.93 14.63 15 14.44 15 14.25C15 14.06 14.93 13.87 14.79 13.73ZM6.76 12.01C5.72 12.01 4.71 11.7 3.84 11.13C2.98 10.55 2.31 9.73 1.91 8.77C1.51 7.81 1.41 6.75 1.61 5.74C1.81 4.72 2.31 3.78 3.05 3.05C3.78 2.31 4.72 1.81 5.74 1.61C6.75 1.41 7.81 1.51 8.77 1.91C9.73 2.31 10.55 2.98 11.13 3.84C11.7 4.71 12.01 5.72 12.01 6.76C12.01 8.15 11.46 9.49 10.47 10.47C9.49 11.46 8.15 12.01 6.76 12.01Z" fill="#636872" fill-opacity="1.000000" fill-rule="nonzero"/>
</svg>
